<svg xmlns="http://www.w3.org/2000/svg" viewBox="0 0 135 40"><path fill="#A6A6A6" d="M130.2 40H4.73C2.13 40 0 37.87 0 35.27V4.73C0 2.13 2.12 0 4.73 0H130.2c2.6 0 4.8 2.12 4.8 4.73v30.54c0 2.6-2.2 4.73-4.8 4.73z"/><path d="M134.03 35.27c0 2.1-1.7 3.83-3.83 3.83H4.73C2.6 39.1.9 37.38.9 35.27V4.72C.9 2.62 2.6.9 4.72.9H130.2c2.12 0 3.83 1.7 3.83 3.83v30.54z"/><path fill="#FFF" d="M30.13 19.78c-.03-3.22 2.64-4.8 2.76-4.86-1.53-2.2-3.87-2.5-4.7-2.53-1.96-.23-3.87 1.16-4.87 1.16-1.03 0-2.57-1.16-4.23-1.12-2.13.03-4.13 1.27-5.23 3.2-2.27 3.9-.58 9.68 1.6 12.85 1.08 1.54 2.35 3.3 4 3.22 1.63-.07 2.24-1.04 4.2-1.04 1.95 0 2.52 1.03 4.2 1 1.75-.04 2.85-1.57 3.9-3.14 1.25-1.78 1.76-3.53 1.78-3.62-.04-.02-3.4-1.3-3.42-5.16zm-3.2-9.48c.87-1.1 1.47-2.57 1.3-4.08-1.26.05-2.84.87-3.75 1.94-.8.94-1.53 2.5-1.34 3.94 1.42.1 2.88-.72 3.8-1.8zm26.72 21.2h-2.28l-1.24-3.9H45.8l-1.18 3.9h-2.2l4.27-13.3h2.63l4.3 13.3zm-3.9-5.55l-1.12-3.47c-.12-.35-.34-1.2-.67-2.5h-.04c-.13.56-.34 1.4-.63 2.5l-1.13 3.48h3.58zm14.9.65c0 1.62-.43 2.9-1.3 3.86-.8.84-1.78 1.26-2.95 1.26-1.27 0-2.17-.45-2.73-1.36h-.04v5.05H55.5V25.1c0-1.03-.03-2.08-.08-3.16h1.88l.12 1.53h.04c.7-1.15 1.8-1.72 3.23-1.72 1.12 0 2.06.46 2.82 1.35.75.9 1.13 2.08 1.13 3.54zm-2.16.07c0-.94-.23-1.7-.65-2.3-.46-.65-1.08-.96-1.86-.96-.53 0-1 .2-1.44.54-.43.35-.7.8-.84 1.37-.06.28-.1.5-.1.66v1.6c0 .7.22 1.3.65 1.77s.98.72 1.66.72c.8 0 1.43-.3 1.88-.92.46-.62.68-1.44.68-2.45zm13.2-.07c0 1.62-.44 2.9-1.33 3.86-.78.84-1.77 1.26-2.94 1.26-1.26 0-2.17-.45-2.72-1.36h-.02v5.05h-2.13V25.1c0-1.03-.03-2.08-.08-3.16h1.87l.12 1.53h.04c.7-1.15 1.78-1.72 3.23-1.72 1.13 0 2.08.46 2.84 1.35.75.9 1.13 2.08 1.13 3.54zm-2.17.07c0-.94-.2-1.7-.64-2.3-.48-.65-1.1-.96-1.87-.96-.53 0-1 .2-1.43.54-.42.35-.7.8-.83 1.37-.07.28-.1.5-.1.66v1.6c0 .7.2 1.3.64 1.77.45.48 1 .72 1.7.72.8 0 1.42-.3 1.87-.92.44-.62.67-1.44.67-2.45zm14.5 1.1c0 1.13-.4 2.05-1.17 2.77-.87.77-2.08 1.16-3.63 1.16-1.43 0-2.58-.28-3.45-.83l.5-1.78c.93.55 1.96.83 3.08.83.8 0 1.43-.18 1.88-.54.44-.37.67-.86.67-1.46 0-.54-.17-1-.54-1.37-.36-.37-.98-.7-1.83-1.03-2.33-.87-3.5-2.14-3.5-3.8 0-1.1.4-2 1.23-2.7.8-.7 1.9-1.05 3.26-1.05 1.22 0 2.22.2 3.03.62L87 20.37c-.76-.4-1.6-.6-2.55-.6-.75 0-1.34.17-1.76.54-.38.35-.55.75-.55 1.23 0 .52.2.96.6 1.3.36.32 1 .66 1.94 1.03 1.14.46 2 1 2.52 1.62.54.6.8 1.38.8 2.3zm7.07-4.27h-2.36v4.67c0 1.18.4 1.77 1.24 1.77.38 0 .7-.03.95-.1l.06 1.62c-.44.16-1 .24-1.68.24-.84 0-1.5-.26-1.98-.77-.47-.5-.7-1.38-.7-2.6V23.5h-1.4v-1.6h1.4v-1.74l2.1-.63v2.4h2.34v1.6zm10.6 3.13c0 1.47-.43 2.68-1.27 3.63-.9.97-2.06 1.46-3.52 1.46-1.4 0-2.5-.47-3.34-1.4s-1.26-2.1-1.26-3.53c0-1.5.42-2.73 1.3-3.68.85-.94 2-1.42 3.47-1.42 1.4 0 2.54.48 3.4 1.4.8.92 1.22 2.1 1.22 3.53zm-2.22.07c0-.9-.2-1.65-.57-2.28-.43-.77-1.07-1.15-1.9-1.15-.85 0-1.5.38-1.95 1.15-.4.63-.57 1.4-.57 2.32 0 .88.18 1.64.57 2.27.46.8 1.1 1.17 1.93 1.17.82 0 1.46-.4 1.92-1.17.38-.65.58-1.42.58-2.3zm9.14-2.92c-.2-.04-.44-.06-.67-.06-.75 0-1.33.3-1.74.85-.33.5-.5 1.14-.5 1.9v5.03h-2.14l.02-6.57c0-1.1-.03-2.1-.08-3.02h1.84l.08 1.86h.06c.23-.64.58-1.14 1.07-1.53.47-.34.98-.5 1.54-.5.17 0 .35 0 .5.03v2.03zm9.54 2.47c0 .38-.03.7-.08.97h-6.4c.03.95.34 1.67.93 2.17.56.43 1.26.65 2.1.65.96 0 1.8-.15 2.6-.45l.33 1.5c-.9.38-1.98.58-3.2.58-1.5 0-2.67-.44-3.52-1.3-.84-.9-1.26-2.06-1.26-3.54 0-1.44.4-2.65 1.18-3.6.84-1.03 1.96-1.55 3.37-1.55 1.37 0 2.42.5 3.13 1.52.57.82.86 1.82.86 3.02zm-2.04-.55c.02-.63-.12-1.18-.4-1.64-.38-.6-.95-.9-1.7-.9-.7 0-1.27.3-1.7.88-.36.46-.57 1-.64 1.66h4.44zM49.05 10c0 1.2-.35 2.07-1.06 2.67-.67.55-1.6.82-2.8.82-.6 0-1.1-.05-1.53-.1V7c.55-.1 1.15-.13 1.8-.13 1.15 0 2 .25 2.6.74.64.57.97 1.37.97 2.4zm-1.1.04c0-.76-.2-1.35-.6-1.76-.42-.4-1-.6-1.78-.6-.33 0-.6 0-.85.06v4.9l.7.02c.8 0 1.43-.23 1.87-.67s.64-1.1.64-1.97zm6.95 1c0 .72-.2 1.32-.6 1.78-.45.48-1.02.72-1.74.72-.7 0-1.24-.23-1.65-.7-.4-.45-.6-1.03-.6-1.72 0-.73.2-1.33.64-1.8s1-.7 1.7-.7 1.26.23 1.68.7c.4.44.6 1 .6 1.72zm-1.08.03c0-.43-.1-.8-.28-1.12-.22-.37-.53-.56-.94-.56-.42 0-.74.17-.96.54-.2.3-.28.7-.28 1.14 0 .43.1.8.28 1.1.23.4.54.57.95.57.4 0 .7-.2.92-.57.2-.32.3-.7.3-1.13zm8.95-2.35l-1.48 4.7h-.98l-.6-2.03c-.17-.54-.3-1.04-.4-1.55-.1.52-.23 1.03-.4 1.53l-.64 2.03h-.98l-1.38-4.7H57l.55 2.24c.12.53.23 1.03.32 1.5.1-.38.22-.88.4-1.5l.67-2.24h.86l.64 2.2c.15.54.28 1.06.38 1.55h.02c.08-.48.18-1 .32-1.55l.58-2.2h1.02zm5.43 4.7h-1.05v-2.7c0-.82-.32-1.23-.95-1.23-.3 0-.56.1-.76.32-.2.23-.3.5-.3.8v2.8H64.1v-3.36c0-.42 0-.87-.03-1.35H65l.04.74h.03c.12-.22.3-.4.54-.56.3-.2.6-.28.97-.28.44 0 .8.14 1.1.43.36.35.54.87.54 1.56v2.82zm2.9 0h-1.06V6.57h1.05v6.87zm6.16-2.38c0 .72-.2 1.32-.62 1.78-.44.48-1 .72-1.73.72-.67 0-1.22-.23-1.63-.7-.4-.45-.62-1.03-.62-1.72 0-.73.2-1.33.64-1.8s1-.7 1.7-.7 1.25.23 1.67.7c.4.44.6 1 .6 1.72zm-1.1.03c0-.43-.08-.8-.27-1.12-.24-.37-.55-.56-.96-.56-.42 0-.74.17-.96.54-.2.3-.3.7-.3 1.14 0 .43.1.8.3 1.1.22.4.53.57.94.57.4 0 .7-.2.94-.57.2-.32.3-.7.3-1.13zm6.17 2.36h-.94l-.1-.54h-.03c-.32.4-.78.63-1.38.63-.45 0-.8-.14-1.08-.43-.25-.24-.37-.57-.37-.95 0-.57.24-1 .72-1.32.5-.3 1.16-.45 2.04-.44v-.1c0-.63-.32-.94-.97-.94-.47 0-.88.12-1.23.35l-.2-.7c.43-.25.97-.4 1.6-.4 1.24 0 1.86.66 1.86 1.96v1.74c0 .48.02.85.07 1.13zm-1.1-1.62v-.7c-1.14-.02-1.72.3-1.72.95 0 .24.08.43.2.55.15.1.33.17.53.17.23 0 .45-.07.64-.2.2-.16.32-.35.37-.57v-.2zm7.05 1.63h-.93l-.04-.75c-.3.57-.8.86-1.53.86-.57 0-1.04-.22-1.4-.67s-.58-1.02-.58-1.73c0-.77.2-1.4.6-1.86.4-.44.88-.66 1.46-.66.63 0 1.08.22 1.33.64v-2.7h1.06v5.6c0 .46 0 .88.03 1.27zm-1.08-1.98v-.8c0-.13 0-.24-.03-.32-.06-.25-.2-.46-.38-.64-.2-.2-.45-.27-.7-.27-.4 0-.7.15-.94.46-.22.3-.34.7-.34 1.2 0 .45.1.83.32 1.12.23.3.54.47.92.47.34 0 .62-.14.83-.4.2-.24.3-.53.3-.87zm10.05-.4c0 .7-.2 1.3-.62 1.77-.44.48-1 .72-1.73.72-.7 0-1.24-.23-1.65-.7-.4-.45-.62-1.03-.62-1.72 0-.73.2-1.33.64-1.8s1-.7 1.7-.7 1.26.23 1.68.7c.4.44.6 1 .6 1.72zm-1.1.02c0-.43-.08-.8-.27-1.12-.22-.37-.53-.56-.94-.56-.42 0-.74.17-.96.54-.2.3-.28.7-.28 1.14 0 .43.1.8.28 1.1.23.4.54.57.95.57.4 0 .7-.2.94-.57.2-.32.3-.7.3-1.13zm6.73 2.36h-1.04v-2.7c0-.83-.32-1.24-.96-1.24-.3 0-.56.1-.75.32s-.3.5-.3.8v2.8H98.8v-3.36c0-.42-.02-.87-.05-1.35h.92l.05.74h.03c.12-.22.3-.4.54-.56.27-.2.6-.28.93-.28.44 0 .8.14 1.1.43.36.35.54.87.54 1.56v2.82zm7.06-3.93h-1.16v2.3c0 .58.2.87.6.87.2 0 .36-.02.48-.05l.03.8c-.23.07-.5.1-.84.1-.4 0-.73-.12-.97-.37s-.36-.67-.36-1.27V9.5h-.68v-.78h.68v-.87l1.03-.3v1.17h1.16v.78zm5.54 3.93h-1.05v-2.68c0-.84-.3-1.26-.94-1.26-.5-.03-.84.22-1 .7-.06.1-.07.24-.07.4v2.82h-1.05V6.56h1.04V9.4h.02c.33-.52.8-.78 1.4-.78.45 0 .8.14 1.1.43.35.35.52.88.52 1.58v2.8zm5.72-2.58c0 .2 0 .35-.03.48h-3.15c.02.46.17.82.46 1.06.27.2.6.3 1.03.3.48 0 .9-.06 1.3-.2l.15.72c-.44.2-.97.3-1.58.3-.73 0-1.3-.22-1.72-.65-.42-.43-.62-1-.62-1.74 0-.7.2-1.3.58-1.77.4-.5.96-.76 1.66-.76.67 0 1.2.27 1.54.77.27.4.4.9.4 1.48zm-1-.27c0-.3-.05-.58-.2-.8-.18-.3-.46-.44-.83-.44-.34 0-.62.14-.83.43-.18.22-.28.5-.32.8h2.2z"/></svg>