<svg xmlns="http://www.w3.org/2000/svg" viewBox="0 0 135.72 40.02"><defs><linearGradient id="i" x1="31.8" x2="15.02" y1="183.29" y2="166.51" gradientUnits="userSpaceOnUse" gradientTransform="matrix(.8 0 0 -.8 0 161.6)"><stop offset="0" stop-color="#00a0ff"/><stop offset=".01" stop-color="#00a1ff"/><stop offset=".26" stop-color="#00beff"/><stop offset=".51" stop-color="#00d2ff"/><stop offset=".76" stop-color="#00dfff"/><stop offset="1" stop-color="#00e3ff"/></linearGradient><linearGradient id="j" x1="43.83" x2="19.64" y1="172" y2="172" gradientUnits="userSpaceOnUse" gradientTransform="matrix(.8 0 0 -.8 0 161.6)"><stop offset="0" stop-color="#ffe000"/><stop offset=".41" stop-color="#ffbd00"/><stop offset=".78" stop-color="#ffa500"/><stop offset="1" stop-color="#ff9c00"/></linearGradient><linearGradient id="k" x1="34.83" x2="12.07" y1="169.7" y2="146.95" gradientUnits="userSpaceOnUse" gradientTransform="matrix(.8 0 0 -.8 0 161.6)"><stop offset="0" stop-color="#ff3a44"/><stop offset="1" stop-color="#c31162"/></linearGradient><linearGradient id="l" x1="17.3" x2="27.46" y1="191.82" y2="181.66" gradientUnits="userSpaceOnUse" gradientTransform="matrix(.8 0 0 -.8 0 161.6)"><stop offset="0" stop-color="#32a071"/><stop offset=".07" stop-color="#2da771"/><stop offset=".48" stop-color="#15cf74"/><stop offset=".8" stop-color="#06e775"/><stop offset="1" stop-color="#00f076"/></linearGradient><clipPath id="a"><path d="M0 0h124v48H0V0z"/></clipPath><mask id="n" width="1" height="1" x="0" y="0" maskUnits="userSpaceOnUse"><path fill-opacity=".2" d="M0 0h124v48H0V0z" clip-path="url(#a)"/></mask><clipPath id="m"><path d="M0 0h124v48H0V0z"/></clipPath><clipPath id="b"><path d="M0 0h124v48H0V0z"/></clipPath><pattern id="o" width="124" height="48" patternTransform="matrix(1 0 0 -1 0 48)" patternUnits="userSpaceOnUse"><path d="M29.63 20.7L18 14.1c-.64-.37-1.22-.35-1.6 0l-.05-.07.06-.06c.4-.34.97-.36 1.6 0l11.7 6.65-.07.07z" clip-path="url(#b)"/></pattern><clipPath id="c"><path d="M0 0h124v48H0V0z"/></clipPath><mask id="q" width="1" height="1" x="0" y="0" maskUnits="userSpaceOnUse"><path fill-opacity=".12" d="M0 0h124v48H0V0z" clip-path="url(#c)"/></mask><clipPath id="p"><path d="M0 0h124v48H0V0z"/></clipPath><clipPath id="d"><path d="M0 0h124v48H0V0z"/></clipPath><pattern id="r" width="124" height="48" patternTransform="matrix(1 0 0 -1 0 48)" patternUnits="userSpaceOnUse"><path d="M16.35 14.14c-.24.25-.37.63-.37 1.13v-.12c0-.5.13-.88.37-1.12l.06.06-.04.04z" clip-path="url(#d)"/></pattern><clipPath id="e"><path d="M0 0h124v48H0V0z"/></clipPath><mask id="t" width="1" height="1" x="0" y="0" maskUnits="userSpaceOnUse"><path fill-opacity=".12" d="M0 0h124v48H0V0z" clip-path="url(#e)"/></mask><clipPath id="s"><path d="M0 0h124v48H0V0z"/></clipPath><clipPath id="f"><path d="M0 0h124v48H0V0z"/></clipPath><pattern id="u" width="124" height="48" patternTransform="matrix(1 0 0 -1 0 48)" patternUnits="userSpaceOnUse"><path d="M33.6 22.96l-3.98-2.27.08-.1 3.9 2.23c.57.32.85.74.85 1.16-.05-.4-.33-.76-.84-1.05z" clip-path="url(#f)"/></pattern><clipPath id="g"><path d="M0 0h124v48H0V0z"/></clipPath><mask id="w" width="1" height="1" x="0" y="0" maskUnits="userSpaceOnUse"><path fill-opacity=".25" d="M0 0h124v48H0V0z" clip-path="url(#g)"/></mask><clipPath id="v"><path d="M0 0h124v48H0V0z"/></clipPath><clipPath id="h"><path d="M0 0h124v48H0V0z"/></clipPath><pattern id="x" width="124" height="48" patternTransform="matrix(1 0 0 -1 0 48)" patternUnits="userSpaceOnUse"><path fill="#fff" d="M18 33.9l15.6-8.86c.52-.3.8-.66.85-1.04 0 .42-.28.84-.84 1.16L18 34.02c-1.1.63-2.02.1-2.02-1.18v-.1c0 1.27.9 1.8 2.03 1.16z" clip-path="url(#h)"/></pattern></defs><path d="M130.54 39.94H5.24c-2.76 0-5-2.23-5-4.95V5.25C.24 2.54 2.47.3 5.24.3h125.3c2.74 0 5 2.24 5 4.97V35c0 2.7-2.26 4.94-5 4.94z"/><path fill="#a6a6a6" d="M130.54 1.1c2.32 0 4.2 1.87 4.2 4.17V35c0 2.28-1.88 4.15-4.2 4.15H5.24c-2.32 0-4.2-1.87-4.2-4.16V5.25c0-2.3 1.88-4.16 4.2-4.16h125.3m0-.8H5.24c-2.76 0-5 2.24-5 4.97V35c0 2.7 2.24 4.94 5 4.94h125.3c2.75 0 5-2.23 5-4.95V5.25c0-2.73-2.25-4.96-5-4.96z"/><path fill="#fff" stroke="#fff" stroke-width=".16" stroke-miterlimit="10" d="M45.93 16.2c0 .66-.2 1.2-.6 1.6-.44.47-1.03.7-1.76.7-.7 0-1.28-.23-1.76-.7-.47-.5-.7-1.1-.7-1.8s.23-1.3.72-1.8c.5-.47 1.08-.7 1.77-.7.34 0 .67.06 1 .2.3.13.54.3.73.53l-.4.42c-.33-.38-.77-.56-1.33-.56-.5 0-.94.15-1.3.5-.38.36-.56.8-.56 1.4 0 .56.2 1.02.56 1.4.37.33.8.5 1.3.5.55 0 1-.17 1.35-.53.25-.23.38-.56.42-.97h-1.75v-.57h2.33c.03.13.03.25.03.36zm3.7-2h-2.2v1.5h1.98v.6h-1.95v1.5h2.18v.6h-2.8v-4.8h2.8v.6zm2.6 4.2h-.6l-.03-4.2h-1.33v-.6h3.3v.6H52.2v4.2zm3.72 0v-4.8h.62v4.8h-.62zm3.35 0h-.6v-4.2h-1.36v-.6h3.3v.6H59.3v4.2zm7.6-.62c-.5.5-1.07.73-1.77.73s-1.3-.22-1.76-.7c-.47-.5-.7-1.1-.7-1.8s.22-1.3.7-1.77c.47-.5 1.06-.73 1.76-.73s1.28.23 1.75.72c.48.5.7 1.08.7 1.78s-.22 1.3-.7 1.78zm-3.08-.4c.36.36.8.54 1.3.54.52 0 .96-.18 1.3-.54.37-.36.55-.82.55-1.38 0-.56-.18-1.02-.54-1.38-.35-.36-.8-.54-1.3-.54-.52 0-.95.18-1.3.54-.36.36-.54.82-.54 1.38 0 .56.16 1.02.5 1.38zm4.64 1.02v-4.8h.75l2.35 3.73h.03l-.03-.92v-2.8h.62v4.8h-.64l-2.45-3.9h-.02l.02.92v3h-.6z" transform="matrix(1.252 0 0 1.239 -9.796 -9.622)"/><path fill="#fff" d="M68.53 21.86c-2.36 0-4.28 1.78-4.28 4.22 0 2.42 1.92 4.2 4.28 4.2 2.36 0 4.28-1.78 4.28-4.2 0-2.44-1.9-4.22-4.26-4.22zm0 6.77c-1.3 0-2.4-1.05-2.4-2.55 0-1.52 1.1-2.56 2.4-2.56 1.3 0 2.4 1.04 2.4 2.56 0 1.5-1.1 2.55-2.4 2.55zm-9.34-6.77c-2.38 0-4.3 1.78-4.3 4.22 0 2.42 1.9 4.2 4.28 4.2 2.35 0 4.27-1.78 4.27-4.2 0-2.44-1.92-4.22-4.28-4.22zm0 6.77c-1.3 0-2.43-1.05-2.43-2.55 0-1.52 1.12-2.56 2.4-2.56 1.3 0 2.42 1.04 2.42 2.56 0 1.5-1.13 2.55-2.4 2.55zm-11.1-5.47v1.8h4.3c-.1 1-.46 1.72-.98 2.24-.63.62-1.62 1.3-3.34 1.3-2.68 0-4.76-2.12-4.76-4.75S45.42 19 48.1 19c1.43 0 2.47.55 3.25 1.27L52.62 19c-1.08-1-2.52-1.8-4.53-1.8-3.67 0-6.74 2.94-6.74 6.55 0 3.6 3.07 6.54 6.72 6.54 1.96 0 3.44-.66 4.6-1.86 1.2-1.18 1.57-2.84 1.57-4.18 0-.4-.03-.8-.1-1.1H48.1zm45.4 1.38c-.36-.94-1.45-2.68-3.66-2.68-2.2 0-4.02 1.7-4.02 4.22 0 2.36 1.8 4.2 4.23 4.2 1.96 0 3.1-1.17 3.55-1.86l-1.44-.95c-.48.7-1.14 1.16-2.1 1.16-.95 0-1.63-.43-2.06-1.27l5.7-2.34-.2-.48zm-5.8 1.4c-.07-1.62 1.26-2.45 2.2-2.45.75 0 1.4.35 1.6.87l-3.8 1.57zm-4.66 4.1h1.88v-12.4h-1.88v12.4zm-3.07-7.24h-.06c-.4-.5-1.2-.94-2.23-.94-2.14 0-4.1 1.86-4.1 4.23 0 2.34 1.96 4.2 4.1 4.2 1.02 0 1.82-.47 2.24-.98h.07v.6c0 1.62-.87 2.5-2.27 2.5-1.14 0-1.85-.83-2.14-1.52l-1.63.68c.47 1.12 1.7 2.5 3.78 2.5 2.2 0 4.07-1.28 4.07-4.4v-7.56H80v.68zm-2.14 5.83c-1.3 0-2.37-1.07-2.37-2.54 0-1.5 1.08-2.6 2.37-2.6 1.27 0 2.28 1.1 2.28 2.58 0 1.46-1 2.53-2.27 2.53zm24.44-10.98h-4.5v12.4h1.88v-4.7h2.62c2.07 0 4.1-1.5 4.1-3.85 0-2.36-2.03-3.85-4.1-3.85zm.05 5.97h-2.67v-4.25h2.67c1.4 0 2.2 1.15 2.2 2.13 0 .96-.8 2.12-2.2 2.12zm11.55-1.78c-1.35 0-2.75.6-3.33 1.9l1.66.68c.37-.68 1.02-.9 1.72-.9.97 0 1.95.57 1.97 1.6v.12c-.36-.2-1.1-.48-1.98-.48-1.78 0-3.6.97-3.6 2.78 0 1.66 1.46 2.73 3.1 2.73 1.26 0 1.96-.56 2.4-1.2h.06V30h1.8v-4.75c0-2.2-1.67-3.43-3.82-3.43zm-.22 6.8c-.6 0-1.47-.3-1.47-1.06 0-.96 1.06-1.33 1.98-1.33.82 0 1.2.18 1.7.42-.14 1.15-1.14 1.96-2.22 1.96zm10.6-6.53l-2.14 5.4h-.05l-2.22-5.38h-2.02l3.35 7.5-1.9 4.2h1.95l5.15-11.7h-2.08zm-16.84 7.95h1.88v-12.4h-1.88v12.4z"/><path fill="url(#i)" d="M16.35 33.97c-.24-.25-.37-.63-.37-1.13v-17.7c0-.48.13-.87.37-1.1l.06-.07 9.93 9.9v.25l-9.9 9.9-.07-.05z" transform="matrix(1.252 0 0 -1.239 -9.796 49.85)"/><path fill="url(#j)" d="M29.62 20.58l-3.3 3.3v.24l3.3 3.3.08-.04 3.9-2.23c1.13-.63 1.13-1.67 0-2.3l-3.9-2.23-.08-.04z" transform="matrix(1.252 0 0 -1.239 -9.796 49.85)"/><path fill="url(#k)" d="M29.7 20.62L26.32 24l-9.97-9.97c.37-.4.97-.44 1.66-.05l11.7 6.64" transform="matrix(1.252 0 0 -1.239 -9.796 49.85)"/><path fill="url(#l)" d="M29.7 27.38L18 34.02c-.68.4-1.28.34-1.65-.05L26.32 24l3.38 3.38z" transform="matrix(1.252 0 0 -1.239 -9.796 49.85)"/><g clip-path="url(#m)" mask="url(#n)" transform="matrix(1.252 0 0 -1.239 -9.796 49.85)"><path fill="url(#o)" d="M0 0h124v48H0V0z"/></g><g clip-path="url(#p)" mask="url(#q)" transform="matrix(1.252 0 0 -1.239 -9.796 49.85)"><path fill="url(#r)" d="M0 0h124v48H0V0z"/></g><g clip-path="url(#s)" mask="url(#t)" transform="matrix(1.252 0 0 -1.239 -9.796 49.85)"><path fill="url(#u)" d="M0 0h124v48H0V0z"/></g><g clip-path="url(#v)" mask="url(#w)" transform="matrix(1.252 0 0 -1.239 -9.796 49.85)"><path fill="url(#x)" d="M0 0h124v48H0V0z"/></g></svg>